<svg width="189" height="34" viewBox="0 0 189 34" fill="none" xmlns="http://www.w3.org/2000/svg">
<path d="M22.9656 15.7335L13.7941 11.1463C13.5348 11.0166 13.2467 10.9553 12.9571 10.9683C12.6674 10.9813 12.3859 11.0682 12.1393 11.2207C11.8927 11.3732 11.6892 11.5862 11.5482 11.8395C11.4071 12.0927 11.3332 12.3779 11.3334 12.6678V21.3322C11.3332 21.6221 11.4071 21.9073 11.5482 22.1605C11.6892 22.4138 11.8927 22.6268 12.1393 22.7793C12.3859 22.9318 12.6674 23.0187 12.9571 23.0317C13.2467 23.0447 13.5348 22.9834 13.7941 22.8537L22.9656 18.2665C23.2006 18.1487 23.3982 17.9679 23.5363 17.7442C23.6744 17.5205 23.7475 17.2629 23.7475 17C23.7475 16.7371 23.6744 16.4795 23.5363 16.2558C23.3982 16.0321 23.2006 15.8513 22.9656 15.7335Z" stroke="#0FA958" stroke-width="2.83333" stroke-linecap="round" stroke-linejoin="round"/>
<path d="M17 29.75C24.0416 29.75 29.75 24.0416 29.75 17C29.75 9.95837 24.0416 4.25 17 4.25C9.95837 4.25 4.25 9.95837 4.25 17C4.25 24.0416 9.95837 29.75 17 29.75Z" stroke="#0FA958" stroke-width="2.83333"/>
<path d="M55.9219 19.4043H50.8496V16.2051H55.9219C56.7057 16.2051 57.3438 16.0775 57.8359 15.8223C58.3281 15.5579 58.6882 15.1934 58.916 14.7285C59.1439 14.2637 59.2578 13.7396 59.2578 13.1562C59.2578 12.5638 59.1439 12.0124 58.916 11.502C58.6882 10.9915 58.3281 10.5814 57.8359 10.2715C57.3438 9.96159 56.7057 9.80664 55.9219 9.80664H52.2715V26.5H48.1699V6.59375H55.9219C57.4805 6.59375 58.8158 6.8763 59.9277 7.44141C61.0488 7.9974 61.9056 8.76758 62.498 9.75195C63.0905 10.7363 63.3867 11.862 63.3867 13.1289C63.3867 14.4141 63.0905 15.526 62.498 16.4648C61.9056 17.4036 61.0488 18.1283 59.9277 18.6387C58.8158 19.1491 57.4805 19.4043 55.9219 19.4043ZM73.791 23.1641V16.5742C73.791 16.1003 73.7135 15.6947 73.5586 15.3574C73.4036 15.0111 73.1621 14.7422 72.834 14.5508C72.515 14.3594 72.1003 14.2637 71.5898 14.2637C71.1523 14.2637 70.7741 14.3411 70.4551 14.4961C70.1361 14.6419 69.89 14.8561 69.7168 15.1387C69.5436 15.4121 69.457 15.7357 69.457 16.1094H65.5195C65.5195 15.4805 65.6654 14.8835 65.957 14.3184C66.2487 13.7533 66.6725 13.2565 67.2285 12.8281C67.7845 12.3906 68.4453 12.0488 69.2109 11.8027C69.9857 11.5566 70.8516 11.4336 71.8086 11.4336C72.957 11.4336 73.9779 11.625 74.8711 12.0078C75.7643 12.3906 76.4661 12.9648 76.9766 13.7305C77.4961 14.4961 77.7559 15.4531 77.7559 16.6016V22.9316C77.7559 23.7428 77.806 24.4082 77.9062 24.9277C78.0065 25.4382 78.1523 25.8848 78.3438 26.2676V26.5H74.3652C74.1738 26.099 74.028 25.5977 73.9277 24.9961C73.8366 24.3854 73.791 23.7747 73.791 23.1641ZM74.3105 17.4902L74.3379 19.7188H72.1367C71.6172 19.7188 71.166 19.778 70.7832 19.8965C70.4004 20.015 70.0859 20.1836 69.8398 20.4023C69.5938 20.612 69.4115 20.8581 69.293 21.1406C69.1836 21.4232 69.1289 21.7331 69.1289 22.0703C69.1289 22.4076 69.2064 22.7129 69.3613 22.9863C69.5163 23.2507 69.7396 23.4603 70.0312 23.6152C70.3229 23.7611 70.6647 23.834 71.0566 23.834C71.6491 23.834 72.1641 23.7155 72.6016 23.4785C73.0391 23.2415 73.3763 22.9499 73.6133 22.6035C73.8594 22.2572 73.987 21.929 73.9961 21.6191L75.0352 23.2871C74.8893 23.6608 74.6888 24.0482 74.4336 24.4492C74.1875 24.8503 73.873 25.2285 73.4902 25.584C73.1074 25.9303 72.6471 26.2174 72.1094 26.4453C71.5716 26.6641 70.9336 26.7734 70.1953 26.7734C69.2565 26.7734 68.4043 26.5866 67.6387 26.2129C66.8822 25.8301 66.2806 25.306 65.834 24.6406C65.3965 23.9661 65.1777 23.2005 65.1777 22.3438C65.1777 21.569 65.3236 20.8809 65.6152 20.2793C65.9069 19.6777 66.3353 19.1719 66.9004 18.7617C67.4746 18.3424 68.1901 18.028 69.0469 17.8184C69.9036 17.5996 70.8971 17.4902 72.0273 17.4902H74.3105ZM84.6465 14.8652V26.5H80.709V11.707H84.4004L84.6465 14.8652ZM84.0723 18.584H83.0059C83.0059 17.4902 83.1471 16.5059 83.4297 15.6309C83.7122 14.7467 84.1087 13.9948 84.6191 13.375C85.1296 12.7461 85.7357 12.2676 86.4375 11.9395C87.1484 11.6022 87.9414 11.4336 88.8164 11.4336C89.5091 11.4336 90.1426 11.5339 90.7168 11.7344C91.291 11.9349 91.7832 12.2539 92.1934 12.6914C92.6126 13.1289 92.9316 13.7077 93.1504 14.4277C93.3783 15.1478 93.4922 16.0273 93.4922 17.0664V26.5H89.5273V17.0527C89.5273 16.3965 89.4362 15.8861 89.2539 15.5215C89.0716 15.1569 88.8027 14.9017 88.4473 14.7559C88.1009 14.6009 87.6725 14.5234 87.1621 14.5234C86.6335 14.5234 86.1732 14.6283 85.7812 14.8379C85.3984 15.0475 85.0794 15.3392 84.8242 15.7129C84.5781 16.0775 84.3913 16.5059 84.2637 16.998C84.1361 17.4902 84.0723 18.0189 84.0723 18.584ZM105.223 23.2734V5.5H109.188V26.5H105.619L105.223 23.2734ZM95.8711 19.2812V18.9941C95.8711 17.8639 95.9987 16.8385 96.2539 15.918C96.5091 14.9883 96.8828 14.1908 97.375 13.5254C97.8672 12.86 98.4733 12.3451 99.1934 11.9805C99.9134 11.6159 100.734 11.4336 101.654 11.4336C102.52 11.4336 103.277 11.6159 103.924 11.9805C104.58 12.3451 105.136 12.8646 105.592 13.5391C106.057 14.2044 106.43 14.9928 106.713 15.9043C106.995 16.8066 107.201 17.7956 107.328 18.8711V19.5C107.201 20.5299 106.995 21.487 106.713 22.3711C106.43 23.2552 106.057 24.0299 105.592 24.6953C105.136 25.3516 104.58 25.862 103.924 26.2266C103.268 26.5911 102.502 26.7734 101.627 26.7734C100.706 26.7734 99.8861 26.5866 99.166 26.2129C98.4551 25.8392 97.8535 25.3151 97.3613 24.6406C96.8783 23.9661 96.5091 23.1732 96.2539 22.2617C95.9987 21.3503 95.8711 20.3568 95.8711 19.2812ZM99.8086 18.9941V19.2812C99.8086 19.8919 99.8542 20.4616 99.9453 20.9902C100.046 21.5189 100.205 21.9883 100.424 22.3984C100.652 22.7995 100.943 23.1139 101.299 23.3418C101.663 23.5605 102.105 23.6699 102.625 23.6699C103.299 23.6699 103.855 23.5195 104.293 23.2188C104.73 22.9089 105.063 22.485 105.291 21.9473C105.528 21.4095 105.665 20.7897 105.701 20.0879V18.2969C105.674 17.7227 105.592 17.2077 105.455 16.752C105.327 16.2871 105.136 15.8906 104.881 15.5625C104.635 15.2344 104.325 14.9792 103.951 14.7969C103.587 14.6146 103.154 14.5234 102.652 14.5234C102.142 14.5234 101.704 14.6419 101.34 14.8789C100.975 15.1068 100.679 15.4212 100.451 15.8223C100.232 16.2233 100.068 16.6973 99.959 17.2441C99.8587 17.7819 99.8086 18.3652 99.8086 18.9941ZM120.248 23.1641V16.5742C120.248 16.1003 120.171 15.6947 120.016 15.3574C119.861 15.0111 119.619 14.7422 119.291 14.5508C118.972 14.3594 118.557 14.2637 118.047 14.2637C117.609 14.2637 117.231 14.3411 116.912 14.4961C116.593 14.6419 116.347 14.8561 116.174 15.1387C116.001 15.4121 115.914 15.7357 115.914 16.1094H111.977C111.977 15.4805 112.122 14.8835 112.414 14.3184C112.706 13.7533 113.13 13.2565 113.686 12.8281C114.242 12.3906 114.902 12.0488 115.668 11.8027C116.443 11.5566 117.309 11.4336 118.266 11.4336C119.414 11.4336 120.435 11.625 121.328 12.0078C122.221 12.3906 122.923 12.9648 123.434 13.7305C123.953 14.4961 124.213 15.4531 124.213 16.6016V22.9316C124.213 23.7428 124.263 24.4082 124.363 24.9277C124.464 25.4382 124.609 25.8848 124.801 26.2676V26.5H120.822C120.631 26.099 120.485 25.5977 120.385 24.9961C120.294 24.3854 120.248 23.7747 120.248 23.1641ZM120.768 17.4902L120.795 19.7188H118.594C118.074 19.7188 117.623 19.778 117.24 19.8965C116.857 20.015 116.543 20.1836 116.297 20.4023C116.051 20.612 115.868 20.8581 115.75 21.1406C115.641 21.4232 115.586 21.7331 115.586 22.0703C115.586 22.4076 115.663 22.7129 115.818 22.9863C115.973 23.2507 116.197 23.4603 116.488 23.6152C116.78 23.7611 117.122 23.834 117.514 23.834C118.106 23.834 118.621 23.7155 119.059 23.4785C119.496 23.2415 119.833 22.9499 120.07 22.6035C120.316 22.2572 120.444 21.929 120.453 21.6191L121.492 23.2871C121.346 23.6608 121.146 24.0482 120.891 24.4492C120.645 24.8503 120.33 25.2285 119.947 25.584C119.564 25.9303 119.104 26.2174 118.566 26.4453C118.029 26.6641 117.391 26.7734 116.652 26.7734C115.714 26.7734 114.861 26.5866 114.096 26.2129C113.339 25.8301 112.738 25.306 112.291 24.6406C111.854 23.9661 111.635 23.2005 111.635 22.3438C111.635 21.569 111.781 20.8809 112.072 20.2793C112.364 19.6777 112.792 19.1719 113.357 18.7617C113.932 18.3424 114.647 18.028 115.504 17.8184C116.361 17.5996 117.354 17.4902 118.484 17.4902H120.768ZM136.395 6.59375V26.5H132.307V6.59375H136.395ZM142.52 6.59375V9.80664H126.277V6.59375H142.52ZM152.322 22.959V11.707H156.26V26.5H152.555L152.322 22.959ZM152.76 19.9238L153.922 19.8965C153.922 20.8809 153.808 21.7969 153.58 22.6445C153.352 23.4831 153.01 24.2122 152.555 24.832C152.099 25.4427 151.525 25.9212 150.832 26.2676C150.139 26.6048 149.324 26.7734 148.385 26.7734C147.665 26.7734 146.999 26.6732 146.389 26.4727C145.787 26.263 145.268 25.9395 144.83 25.502C144.402 25.0553 144.064 24.4857 143.818 23.793C143.581 23.0911 143.463 22.248 143.463 21.2637V11.707H147.4V21.291C147.4 21.7285 147.451 22.0977 147.551 22.3984C147.66 22.6992 147.811 22.9453 148.002 23.1367C148.193 23.3281 148.417 23.4648 148.672 23.5469C148.936 23.6289 149.228 23.6699 149.547 23.6699C150.358 23.6699 150.996 23.5059 151.461 23.1777C151.935 22.8496 152.268 22.403 152.459 21.8379C152.66 21.2637 152.76 20.6257 152.76 19.9238ZM159.268 5.5H163.205V23.1094L162.809 26.5H159.268V5.5ZM172.57 18.9531V19.2402C172.57 20.3431 172.452 21.3548 172.215 22.2754C171.987 23.196 171.632 23.9935 171.148 24.668C170.665 25.3333 170.064 25.8529 169.344 26.2266C168.633 26.5911 167.794 26.7734 166.828 26.7734C165.926 26.7734 165.142 26.5911 164.477 26.2266C163.82 25.862 163.269 25.347 162.822 24.6816C162.376 24.0163 162.016 23.237 161.742 22.3438C161.469 21.4505 161.264 20.4753 161.127 19.418V18.7891C161.264 17.7318 161.469 16.7565 161.742 15.8633C162.016 14.9701 162.376 14.1908 162.822 13.5254C163.269 12.86 163.82 12.3451 164.477 11.9805C165.133 11.6159 165.908 11.4336 166.801 11.4336C167.776 11.4336 168.624 11.6204 169.344 11.9941C170.073 12.3587 170.674 12.8783 171.148 13.5527C171.632 14.2181 171.987 15.0111 172.215 15.9316C172.452 16.8431 172.57 17.8503 172.57 18.9531ZM168.633 19.2402V18.9531C168.633 18.3516 168.587 17.7865 168.496 17.2578C168.414 16.7201 168.268 16.2507 168.059 15.8496C167.849 15.4395 167.562 15.1159 167.197 14.8789C166.842 14.6419 166.382 14.5234 165.816 14.5234C165.279 14.5234 164.823 14.6146 164.449 14.7969C164.076 14.9792 163.766 15.2344 163.52 15.5625C163.283 15.8906 163.105 16.2826 162.986 16.7383C162.868 17.1849 162.795 17.6771 162.768 18.2148V20.0059C162.795 20.7259 162.913 21.3639 163.123 21.9199C163.342 22.4668 163.67 22.8997 164.107 23.2188C164.554 23.5286 165.133 23.6836 165.844 23.6836C166.4 23.6836 166.86 23.5742 167.225 23.3555C167.589 23.1367 167.872 22.8268 168.072 22.4258C168.282 22.0247 168.428 21.5553 168.51 21.0176C168.592 20.4707 168.633 19.8783 168.633 19.2402ZM181.826 26.7734C180.678 26.7734 179.648 26.5911 178.736 26.2266C177.825 25.8529 177.05 25.3379 176.412 24.6816C175.783 24.0254 175.3 23.2643 174.963 22.3984C174.626 21.5234 174.457 20.5938 174.457 19.6094V19.0625C174.457 17.9414 174.617 16.916 174.936 15.9863C175.255 15.0566 175.71 14.25 176.303 13.5664C176.904 12.8828 177.633 12.3587 178.49 11.9941C179.347 11.6204 180.313 11.4336 181.389 11.4336C182.437 11.4336 183.367 11.6068 184.178 11.9531C184.989 12.2995 185.668 12.7917 186.215 13.4297C186.771 14.0677 187.19 14.8333 187.473 15.7266C187.755 16.6107 187.896 17.5951 187.896 18.6797V20.3203H176.139V17.6953H184.027V17.3945C184.027 16.8477 183.927 16.36 183.727 15.9316C183.535 15.4941 183.243 15.1478 182.852 14.8926C182.46 14.6374 181.958 14.5098 181.348 14.5098C180.828 14.5098 180.382 14.6237 180.008 14.8516C179.634 15.0794 179.329 15.3984 179.092 15.8086C178.864 16.2188 178.691 16.7018 178.572 17.2578C178.463 17.8047 178.408 18.4062 178.408 19.0625V19.6094C178.408 20.2018 178.49 20.7487 178.654 21.25C178.827 21.7513 179.069 22.1842 179.379 22.5488C179.698 22.9134 180.081 23.196 180.527 23.3965C180.983 23.597 181.498 23.6973 182.072 23.6973C182.783 23.6973 183.444 23.5605 184.055 23.2871C184.674 23.0046 185.208 22.5807 185.654 22.0156L187.568 24.0938C187.258 24.5404 186.835 24.9688 186.297 25.3789C185.768 25.7891 185.13 26.1263 184.383 26.3906C183.635 26.6458 182.783 26.7734 181.826 26.7734Z" fill="white"/>
</svg>
