<svg width="34" height="34" viewBox="0 0 34 34" fill="none" xmlns="http://www.w3.org/2000/svg">
<path d="M22.9656 15.7335L13.7941 11.1463C13.5348 11.0166 13.2467 10.9553 12.9571 10.9683C12.6674 10.9813 12.3859 11.0682 12.1393 11.2207C11.8927 11.3732 11.6892 11.5862 11.5482 11.8395C11.4071 12.0927 11.3332 12.3779 11.3334 12.6678V21.3322C11.3332 21.6221 11.4071 21.9073 11.5482 22.1605C11.6892 22.4138 11.8927 22.6268 12.1393 22.7793C12.3859 22.9318 12.6674 23.0187 12.9571 23.0317C13.2467 23.0447 13.5348 22.9834 13.7941 22.8537L22.9656 18.2665C23.2006 18.1487 23.3982 17.9679 23.5363 17.7442C23.6744 17.5205 23.7475 17.2629 23.7475 17C23.7475 16.7371 23.6744 16.4795 23.5363 16.2558C23.3982 16.0321 23.2006 15.8513 22.9656 15.7335Z" stroke="#0FA958" stroke-width="2.83333" stroke-linecap="round" stroke-linejoin="round"/>
<path d="M17 29.75C24.0416 29.75 29.75 24.0416 29.75 17C29.75 9.95837 24.0416 4.25 17 4.25C9.95837 4.25 4.25 9.95837 4.25 17C4.25 24.0416 9.95837 29.75 17 29.75Z" stroke="#0FA958" stroke-width="2.83333"/>
</svg>
